# 3ds Max Wavefront OBJ Exporter v0.97b - (c)2007 guruware
# File Created: 10.03.2017 18:32:44

mtllib basketBallRim.mtl

#
# object net
#

v  8.6256 4.1697 1.6731
v  8.1578 6.8226 1.6731
v  8.0534 6.7845 6.6048
v  8.5145 4.1697 6.6048
v  6.8109 9.1555 1.6731
v  6.7258 9.0840 6.6048
v  4.7473 10.8870 1.6731
v  4.6917 10.7908 6.6048
v  2.2160 11.8084 1.6731
v  2.1967 11.6989 6.6048
v  -0.4779 11.8084 1.6731
v  -0.4586 11.6989 6.6048
v  -3.0092 10.8870 1.6731
v  -2.9537 10.7908 6.6048
v  -5.0728 9.1555 1.6731
v  -4.9877 9.0840 6.6048
v  -6.4197 6.8226 1.6731
v  -6.3153 6.7846 6.6048
v  -6.8875 4.1697 1.6731
v  -6.7764 4.1697 6.6048
v  -6.4197 1.5168 1.6731
v  -6.3153 1.5548 6.6048
v  -5.0728 -0.8162 1.6731
v  -4.9877 -0.7447 6.6048
v  -3.0092 -2.5477 1.6731
v  -2.9537 -2.4515 6.6048
v  -0.4779 -3.4690 1.6731
v  -0.4586 -3.3596 6.6048
v  2.2159 -3.4691 1.6731
v  2.1966 -3.3596 6.6048
v  4.7473 -2.5477 1.6731
v  4.6917 -2.4515 6.6048
v  6.8109 -0.8162 1.6731
v  6.7258 -0.7447 6.6048
v  8.1578 1.5168 1.6731
v  8.0534 1.5548 6.6048
v  7.8885 6.7246 11.5365
v  8.3390 4.1697 11.5365
v  6.5914 8.9713 11.5365
v  4.6040 10.6389 11.5365
v  2.1662 11.5262 11.5365
v  -0.4281 11.5262 11.5365
v  -2.8660 10.6389 11.5365
v  -4.8533 8.9713 11.5365
v  -6.1505 6.7246 11.5365
v  -6.6010 4.1697 11.5365
v  -6.1505 1.6148 11.5365
v  -4.8533 -0.6320 11.5365
v  -2.8660 -2.2995 11.5365
v  -0.4281 -3.1868 11.5365
v  2.1662 -3.1869 11.5365
v  4.6040 -2.2995 11.5365
v  6.5914 -0.6320 11.5365
v  7.8885 1.6148 11.5365
v  8.2556 6.8582 16.4682
v  8.7297 4.1697 16.4682
v  6.8906 9.2224 16.4682
v  4.7993 10.9772 16.4682
v  2.2340 11.9109 16.4682
v  -0.4959 11.9109 16.4682
v  -3.0613 10.9772 16.4682
v  -5.1525 9.2224 16.4682
v  -6.5175 6.8582 16.4682
v  -6.9916 4.1697 16.4682
v  -6.5175 1.4812 16.4682
v  -5.1525 -0.8830 16.4682
v  -3.0613 -2.6378 16.4682
v  -0.4959 -3.5715 16.4682
v  2.2340 -3.5715 16.4682
v  4.7993 -2.6378 16.4682
v  6.8906 -0.8830 16.4682
v  8.2556 1.4812 16.4682
v  9.3186 7.2451 21.3999
v  9.8609 4.1697 21.3999
v  7.7572 9.9495 21.3999
v  5.3650 11.9568 21.3999
v  2.4305 13.0249 21.3999
v  -0.6924 13.0249 21.3999
v  -3.6269 11.9568 21.3999
v  -6.0191 9.9495 21.3999
v  -7.5805 7.2451 21.3999
v  -8.1228 4.1697 21.3999
v  -7.5805 1.0943 21.3999
v  -6.0191 -1.6102 21.3999
v  -3.6269 -3.6175 21.3999
v  -0.6924 -4.6856 21.3999
v  2.4305 -4.6856 21.3999
v  5.3650 -3.6175 21.3999
v  7.7572 -1.6102 21.3999
v  9.3186 1.0943 21.3999
v  9.3263 7.2478 26.3316
v  9.8690 4.1697 26.3316
v  7.7634 9.9548 26.3316
v  5.3690 11.9639 26.3316
v  2.4319 13.0329 26.3316
v  -0.6938 13.0329 26.3316
v  -3.6310 11.9639 26.3316
v  -6.0254 9.9548 26.3316
v  -7.5882 7.2478 26.3316
v  -8.1310 4.1697 26.3316
v  -7.5882 1.0915 26.3316
v  -6.0254 -1.6154 26.3316
v  -3.6310 -3.6246 26.3316
v  -0.6938 -4.6936 26.3316
v  2.4319 -4.6936 26.3316
v  5.3690 -3.6246 26.3316
v  7.7634 -1.6154 26.3316
v  9.3263 1.0915 26.3316
# 108 vertices

vn 0.9997 -0.0000 0.0225
vn 0.9395 0.3419 0.0225
vn 0.9393 0.3419 0.0290
vn 0.9996 -0.0000 0.0290
vn 0.7659 0.6426 0.0225
vn 0.7657 0.6425 0.0290
vn 0.4999 0.8658 0.0225
vn 0.4998 0.8657 0.0290
vn 0.1736 0.9846 0.0225
vn 0.1736 0.9844 0.0290
vn -0.1736 0.9846 0.0225
vn -0.1736 0.9844 0.0290
vn -0.4999 0.8658 0.0225
vn -0.4998 0.8657 0.0290
vn -0.7659 0.6426 0.0225
vn -0.7657 0.6425 0.0290
vn -0.9395 0.3419 0.0225
vn -0.9393 0.3419 0.0290
vn -0.9997 0.0000 0.0225
vn -0.9996 0.0000 0.0290
vn -0.9395 -0.3419 0.0225
vn -0.9393 -0.3419 0.0290
vn -0.7659 -0.6426 0.0225
vn -0.7657 -0.6425 0.0290
vn -0.4999 -0.8658 0.0225
vn -0.4998 -0.8657 0.0290
vn -0.1736 -0.9846 0.0225
vn -0.1736 -0.9844 0.0290
vn 0.1736 -0.9846 0.0225
vn 0.1736 -0.9844 0.0290
vn 0.4999 -0.8658 0.0225
vn 0.4998 -0.8657 0.0290
vn 0.7658 -0.6426 0.0225
vn 0.7657 -0.6425 0.0290
vn 0.9395 -0.3419 0.0225
vn 0.9393 -0.3419 0.0290
vn 0.9395 0.3419 -0.0219
vn 0.9998 -0.0000 -0.0219
vn 0.7659 0.6426 -0.0219
vn 0.4999 0.8658 -0.0219
vn 0.1736 0.9846 -0.0219
vn -0.1736 0.9846 -0.0219
vn -0.4999 0.8658 -0.0219
vn -0.7659 0.6426 -0.0219
vn -0.9395 0.3419 -0.0219
vn -0.9998 0.0000 -0.0219
vn -0.9395 -0.3419 -0.0219
vn -0.7659 -0.6426 -0.0219
vn -0.4999 -0.8658 -0.0219
vn -0.1736 -0.9846 -0.0219
vn 0.1736 -0.9846 -0.0219
vn 0.4999 -0.8658 -0.0219
vn 0.7659 -0.6426 -0.0219
vn 0.9395 -0.3419 -0.0219
vn 0.9286 0.3380 -0.1529
vn 0.9882 -0.0000 -0.1529
vn 0.7570 0.6352 -0.1529
vn 0.4941 0.8558 -0.1529
vn 0.1716 0.9732 -0.1529
vn -0.1716 0.9732 -0.1529
vn -0.4941 0.8558 -0.1529
vn -0.7570 0.6352 -0.1529
vn -0.9286 0.3380 -0.1529
vn -0.9882 0.0000 -0.1529
vn -0.9286 -0.3380 -0.1529
vn -0.7570 -0.6352 -0.1529
vn -0.4941 -0.8558 -0.1529
vn -0.1716 -0.9732 -0.1529
vn 0.1716 -0.9732 -0.1529
vn 0.4941 -0.8558 -0.1529
vn 0.7570 -0.6352 -0.1529
vn 0.9286 -0.3380 -0.1529
vn 0.9338 0.3399 -0.1120
vn 0.9937 -0.0000 -0.1120
vn 0.7612 0.6387 -0.1120
vn 0.4969 0.8606 -0.1120
vn 0.1726 0.9786 -0.1120
vn -0.1726 0.9786 -0.1120
vn -0.4969 0.8606 -0.1120
vn -0.7612 0.6387 -0.1120
vn -0.9338 0.3399 -0.1120
vn -0.9937 0.0000 -0.1120
vn -0.9338 -0.3399 -0.1120
vn -0.7612 -0.6387 -0.1120
vn -0.4969 -0.8606 -0.1120
vn -0.1726 -0.9786 -0.1120
vn 0.1726 -0.9786 -0.1120
vn 0.4969 -0.8606 -0.1120
vn 0.7612 -0.6387 -0.1120
vn 0.9338 -0.3399 -0.1120
vn 0.9397 0.3420 -0.0016
vn 1.0000 -0.0000 -0.0016
vn 0.7660 0.6428 -0.0016
vn 0.5000 0.8660 -0.0016
vn 0.1736 0.9848 -0.0016
vn -0.1736 0.9848 -0.0016
vn -0.5000 0.8660 -0.0016
vn -0.7660 0.6428 -0.0016
vn -0.9397 0.3420 -0.0016
vn -1.0000 0.0000 -0.0016
vn -0.9397 -0.3420 -0.0016
vn -0.7660 -0.6428 -0.0016
vn -0.5000 -0.8660 -0.0016
vn -0.1736 -0.9848 -0.0016
vn 0.1736 -0.9848 -0.0016
vn 0.5000 -0.8660 -0.0016
vn 0.7660 -0.6428 -0.0016
vn 0.9397 -0.3420 -0.0016
# 108 vertex normals

vt 0.7500 0.0000 1.0000
vt 0.8056 0.0000 1.0000
vt 0.8056 0.2000 1.0000
vt 0.7500 0.2000 1.0000
vt 0.8611 0.0000 1.0000
vt 0.8611 0.2000 1.0000
vt 0.9167 0.0000 1.0000
vt 0.9167 0.2000 1.0000
vt 0.9722 0.0000 1.0000
vt 0.9722 0.2000 1.0000
vt 1.0278 0.0000 1.0000
vt 1.0278 0.2000 1.0000
vt 0.0278 0.0000 1.0000
vt 0.0833 0.0000 1.0000
vt 0.0833 0.2000 1.0000
vt 0.0278 0.2000 1.0000
vt 0.1389 0.0000 1.0000
vt 0.1389 0.2000 1.0000
vt 0.1944 0.0000 1.0000
vt 0.1944 0.2000 1.0000
vt 0.2500 0.0000 1.0000
vt 0.2500 0.2000 1.0000
vt 0.3056 0.0000 1.0000
vt 0.3056 0.2000 1.0000
vt 0.3611 0.0000 1.0000
vt 0.3611 0.2000 1.0000
vt 0.4167 0.0000 1.0000
vt 0.4167 0.2000 1.0000
vt 0.4722 0.0000 1.0000
vt 0.4722 0.2000 1.0000
vt 0.5278 0.0000 1.0000
vt 0.5278 0.2000 1.0000
vt 0.5833 0.0000 1.0000
vt 0.5833 0.2000 1.0000
vt 0.6389 0.0000 1.0000
vt 0.6389 0.2000 1.0000
vt 0.6944 0.0000 1.0000
vt 0.6944 0.2000 1.0000
vt 0.8056 0.4000 1.0000
vt 0.7500 0.4000 1.0000
vt 0.8611 0.4000 1.0000
vt 0.9167 0.4000 1.0000
vt 0.9722 0.4000 1.0000
vt 1.0278 0.4000 1.0000
vt 0.0833 0.4000 1.0000
vt 0.0278 0.4000 1.0000
vt 0.1389 0.4000 1.0000
vt 0.1944 0.4000 1.0000
vt 0.2500 0.4000 1.0000
vt 0.3056 0.4000 1.0000
vt 0.3611 0.4000 1.0000
vt 0.4167 0.4000 1.0000
vt 0.4722 0.4000 1.0000
vt 0.5278 0.4000 1.0000
vt 0.5833 0.4000 1.0000
vt 0.6389 0.4000 1.0000
vt 0.6944 0.4000 1.0000
vt 0.8056 0.6000 1.0000
vt 0.7500 0.6000 1.0000
vt 0.8611 0.6000 1.0000
vt 0.9167 0.6000 1.0000
vt 0.9722 0.6000 1.0000
vt 1.0278 0.6000 1.0000
vt 0.0833 0.6000 1.0000
vt 0.0278 0.6000 1.0000
vt 0.1389 0.6000 1.0000
vt 0.1944 0.6000 1.0000
vt 0.2500 0.6000 1.0000
vt 0.3056 0.6000 1.0000
vt 0.3611 0.6000 1.0000
vt 0.4167 0.6000 1.0000
vt 0.4722 0.6000 1.0000
vt 0.5278 0.6000 1.0000
vt 0.5833 0.6000 1.0000
vt 0.6389 0.6000 1.0000
vt 0.6944 0.6000 1.0000
vt 0.8056 0.8000 1.0000
vt 0.7500 0.8000 1.0000
vt 0.8611 0.8000 1.0000
vt 0.9167 0.8000 1.0000
vt 0.9722 0.8000 1.0000
vt 1.0278 0.8000 1.0000
vt 0.0833 0.8000 1.0000
vt 0.0278 0.8000 1.0000
vt 0.1389 0.8000 1.0000
vt 0.1944 0.8000 1.0000
vt 0.2500 0.8000 1.0000
vt 0.3056 0.8000 1.0000
vt 0.3611 0.8000 1.0000
vt 0.4167 0.8000 1.0000
vt 0.4722 0.8000 1.0000
vt 0.5278 0.8000 1.0000
vt 0.5833 0.8000 1.0000
vt 0.6389 0.8000 1.0000
vt 0.6944 0.8000 1.0000
vt 0.8056 1.0000 1.0000
vt 0.7500 1.0000 1.0000
vt 0.8611 1.0000 1.0000
vt 0.9167 1.0000 1.0000
vt 0.9722 1.0000 1.0000
vt 1.0278 1.0000 1.0000
vt 0.0833 1.0000 1.0000
vt 0.0278 1.0000 1.0000
vt 0.1389 1.0000 1.0000
vt 0.1944 1.0000 1.0000
vt 0.2500 1.0000 1.0000
vt 0.3056 1.0000 1.0000
vt 0.3611 1.0000 1.0000
vt 0.4167 1.0000 1.0000
vt 0.4722 1.0000 1.0000
vt 0.5278 1.0000 1.0000
vt 0.5833 1.0000 1.0000
vt 0.6389 1.0000 1.0000
vt 0.6944 1.0000 1.0000
# 114 texture coords

g net
usemtl Model
s 8
f 1/1/1 2/2/2 3/3/3 4/4/4 
f 2/2/2 5/5/5 6/6/6 3/3/3 
f 5/5/5 7/7/7 8/8/8 6/6/6 
f 7/7/7 9/9/9 10/10/10 8/8/8 
f 9/9/9 11/11/11 12/12/12 10/10/10 
f 11/13/11 13/14/13 14/15/14 12/16/12 
f 13/14/13 15/17/15 16/18/16 14/15/14 
f 15/17/15 17/19/17 18/20/18 16/18/16 
f 17/19/17 19/21/19 20/22/20 18/20/18 
f 19/21/19 21/23/21 22/24/22 20/22/20 
f 21/23/21 23/25/23 24/26/24 22/24/22 
f 23/25/23 25/27/25 26/28/26 24/26/24 
f 25/27/25 27/29/27 28/30/28 26/28/26 
f 27/29/27 29/31/29 30/32/30 28/30/28 
f 29/31/29 31/33/31 32/34/32 30/32/30 
f 31/33/31 33/35/33 34/36/34 32/34/32 
f 33/35/33 35/37/35 36/38/36 34/36/34 
f 35/37/35 1/1/1 4/4/4 36/38/36 
f 4/4/4 3/3/3 37/39/37 38/40/38 
f 3/3/3 6/6/6 39/41/39 37/39/37 
f 6/6/6 8/8/8 40/42/40 39/41/39 
f 8/8/8 10/10/10 41/43/41 40/42/40 
f 10/10/10 12/12/12 42/44/42 41/43/41 
f 12/16/12 14/15/14 43/45/43 42/46/42 
f 14/15/14 16/18/16 44/47/44 43/45/43 
f 16/18/16 18/20/18 45/48/45 44/47/44 
f 18/20/18 20/22/20 46/49/46 45/48/45 
f 20/22/20 22/24/22 47/50/47 46/49/46 
f 22/24/22 24/26/24 48/51/48 47/50/47 
f 24/26/24 26/28/26 49/52/49 48/51/48 
f 26/28/26 28/30/28 50/53/50 49/52/49 
f 28/30/28 30/32/30 51/54/51 50/53/50 
f 30/32/30 32/34/32 52/55/52 51/54/51 
f 32/34/32 34/36/34 53/56/53 52/55/52 
f 34/36/34 36/38/36 54/57/54 53/56/53 
f 36/38/36 4/4/4 38/40/38 54/57/54 
f 38/40/38 37/39/37 55/58/55 56/59/56 
f 37/39/37 39/41/39 57/60/57 55/58/55 
f 39/41/39 40/42/40 58/61/58 57/60/57 
f 40/42/40 41/43/41 59/62/59 58/61/58 
f 41/43/41 42/44/42 60/63/60 59/62/59 
f 42/46/42 43/45/43 61/64/61 60/65/60 
f 43/45/43 44/47/44 62/66/62 61/64/61 
f 44/47/44 45/48/45 63/67/63 62/66/62 
f 45/48/45 46/49/46 64/68/64 63/67/63 
f 46/49/46 47/50/47 65/69/65 64/68/64 
f 47/50/47 48/51/48 66/70/66 65/69/65 
f 48/51/48 49/52/49 67/71/67 66/70/66 
f 49/52/49 50/53/50 68/72/68 67/71/67 
f 50/53/50 51/54/51 69/73/69 68/72/68 
f 51/54/51 52/55/52 70/74/70 69/73/69 
f 52/55/52 53/56/53 71/75/71 70/74/70 
f 53/56/53 54/57/54 72/76/72 71/75/71 
f 54/57/54 38/40/38 56/59/56 72/76/72 
f 56/59/56 55/58/55 73/77/73 74/78/74 
f 55/58/55 57/60/57 75/79/75 73/77/73 
f 57/60/57 58/61/58 76/80/76 75/79/75 
f 58/61/58 59/62/59 77/81/77 76/80/76 
f 59/62/59 60/63/60 78/82/78 77/81/77 
f 60/65/60 61/64/61 79/83/79 78/84/78 
f 61/64/61 62/66/62 80/85/80 79/83/79 
f 62/66/62 63/67/63 81/86/81 80/85/80 
f 63/67/63 64/68/64 82/87/82 81/86/81 
f 64/68/64 65/69/65 83/88/83 82/87/82 
f 65/69/65 66/70/66 84/89/84 83/88/83 
f 66/70/66 67/71/67 85/90/85 84/89/84 
f 67/71/67 68/72/68 86/91/86 85/90/85 
f 68/72/68 69/73/69 87/92/87 86/91/86 
f 69/73/69 70/74/70 88/93/88 87/92/87 
f 70/74/70 71/75/71 89/94/89 88/93/88 
f 71/75/71 72/76/72 90/95/90 89/94/89 
f 72/76/72 56/59/56 74/78/74 90/95/90 
f 74/78/74 73/77/73 91/96/91 92/97/92 
f 73/77/73 75/79/75 93/98/93 91/96/91 
f 75/79/75 76/80/76 94/99/94 93/98/93 
f 76/80/76 77/81/77 95/100/95 94/99/94 
f 77/81/77 78/82/78 96/101/96 95/100/95 
f 78/84/78 79/83/79 97/102/97 96/103/96 
f 79/83/79 80/85/80 98/104/98 97/102/97 
f 80/85/80 81/86/81 99/105/99 98/104/98 
f 81/86/81 82/87/82 100/106/100 99/105/99 
f 82/87/82 83/88/83 101/107/101 100/106/100 
f 83/88/83 84/89/84 102/108/102 101/107/101 
f 84/89/84 85/90/85 103/109/103 102/108/102 
f 85/90/85 86/91/86 104/110/104 103/109/103 
f 86/91/86 87/92/87 105/111/105 104/110/104 
f 87/92/87 88/93/88 106/112/106 105/111/105 
f 88/93/88 89/94/89 107/113/107 106/112/106 
f 89/94/89 90/95/90 108/114/108 107/113/107 
f 90/95/90 74/78/74 92/97/92 108/114/108 
# 90 polygons

